<?xml version="1.0" encoding="UTF-8"?>
<svg version="1.1" xmlns="http://www.w3.org/2000/svg" width="189" height="148">
<path d="M0 0 C2.33816404 1.05575054 4.07453658 1.25090697 6.62963867 1.35449219 C7.77190918 1.40790771 7.77190918 1.40790771 8.93725586 1.46240234 C9.89277344 1.49640137 10.84829102 1.53040039 11.83276367 1.56542969 C14.88526367 1.68917969 17.93776367 1.81292969 21.08276367 1.94042969 C21.08276367 8.87042969 21.08276367 15.80042969 21.08276367 22.94042969 C4.91276367 22.94042969 -11.25723633 22.94042969 -27.91723633 22.94042969 C-27.58723633 39.44042969 -27.25723633 55.94042969 -26.91723633 72.94042969 C-5.04602459 60.18222284 5.62012318 48.10508545 12.08276367 23.94042969 C12.74276367 24.27042969 13.40276367 24.60042969 14.08276367 24.94042969 C17.1547889 36.53484748 13.67081912 49.70005449 8.08276367 59.94042969 C-0.33904768 73.02880442 -12.16514164 83.60096931 -25.91723633 90.94042969 C-26.57723633 90.94042969 -27.23723633 90.94042969 -27.91723633 90.94042969 C-27.91723633 100.84042969 -27.91723633 110.74042969 -27.91723633 120.94042969 C-32.68161133 120.96105469 -37.44598633 120.98167969 -42.35473633 121.00292969 C-43.85963623 121.01203369 -45.36453613 121.0211377 -46.91503906 121.03051758 C-48.0901001 121.03301514 -49.26516113 121.0355127 -50.47583008 121.03808594 C-51.68553467 121.04332275 -52.89523926 121.04855957 -54.14160156 121.05395508 C-56.91723633 120.94042969 -56.91723633 120.94042969 -57.91723633 119.94042969 C-58.15402349 117.24807193 -58.33921658 114.57544813 -58.47973633 111.87792969 C-58.54451172 110.74000977 -58.54451172 110.74000977 -58.6105957 109.57910156 C-58.71697266 107.69977531 -58.81763567 105.82012725 -58.91723633 103.94042969 C-62.38223633 104.93042969 -62.38223633 104.93042969 -65.91723633 105.94042969 C-66.24723633 110.89042969 -66.57723633 115.84042969 -66.91723633 120.94042969 C-76.48723633 120.94042969 -86.05723633 120.94042969 -95.91723633 120.94042969 C-95.91723633 116.98042969 -95.91723633 113.02042969 -95.91723633 108.94042969 C-97.76961914 108.99263672 -97.76961914 108.99263672 -99.65942383 109.04589844 C-112.72713642 109.29650143 -125.24349646 108.33989637 -137.91723633 104.94042969 C-137.91723633 104.28042969 -137.91723633 103.62042969 -137.91723633 102.94042969 C-133.22176546 102.24552757 -128.52612239 101.55180452 -123.83032227 100.85913086 C-122.2358744 100.62377074 -120.64147245 100.38809937 -119.04711914 100.15209961 C-116.743531 99.81117433 -114.43977513 99.47140227 -112.13598633 99.13183594 C-111.43356812 99.02762833 -110.7311499 98.92342072 -110.00744629 98.8160553 C-105.31765074 98.12628757 -100.62260012 97.51476086 -95.91723633 96.94042969 C-95.99055176 95.76125977 -96.06386719 94.58208984 -96.1394043 93.3671875 C-96.39515987 88.94051289 -96.55430876 84.51446728 -96.6862793 80.08251953 C-96.75617125 78.17482343 -96.85134047 76.26786345 -96.97338867 74.36279297 C-97.93039411 59.02657981 -97.93039411 59.02657981 -94.61474609 53.94372559 C-91.38083114 50.37453727 -87.62167975 47.66165017 -83.59527588 45.05090332 C-81.49047687 43.65801374 -79.64163248 42.05906465 -77.77661133 40.36230469 C-76.74029013 39.47152012 -75.70384255 38.58088255 -74.66723633 37.69042969 C-74.12711914 37.21992187 -73.58700195 36.74941406 -73.03051758 36.26464844 C-69.14418604 32.94042969 -69.14418604 32.94042969 -66.91723633 32.94042969 C-66.91723633 51.42042969 -66.91723633 69.90042969 -66.91723633 88.94042969 C-62.46223633 87.95042969 -62.46223633 87.95042969 -57.91723633 86.94042969 C-57.94388367 86.17558762 -57.97053101 85.41074554 -57.99798584 84.62272644 C-58.23965653 77.37142888 -58.42171642 70.12211406 -58.53898239 62.8678236 C-58.60130546 59.13904121 -58.6856202 55.41361674 -58.82250977 51.68676758 C-59.7561504 25.59132921 -59.7561504 25.59132921 -55.40576172 19.65209961 C-52.6179608 16.76392879 -49.42263315 14.88396824 -45.91723633 12.94042969 C-43.8236132 11.32618855 -41.85425195 9.61104069 -39.85473633 7.87792969 C-35.05250917 3.97832379 -32.23594685 1.71073341 -25.93676758 1.52636719 C-24.77338867 1.48769531 -23.61000977 1.44902344 -22.41137695 1.40917969 C-21.19643555 1.37824219 -19.98149414 1.34730469 -18.72973633 1.31542969 C-17.50319336 1.27675781 -16.27665039 1.23808594 -15.01293945 1.19824219 C-11.98118977 1.10386866 -8.94944792 1.0182842 -5.91723633 0.94042969 C-16.33946824 -1.52275191 -26.11389789 -2.55415585 -36.85473633 -2.43457031 C-37.54913818 -2.43191162 -38.24354004 -2.42925293 -38.95898438 -2.42651367 C-49.26900289 -2.38021652 -58.88518305 -1.56758363 -68.91723633 0.94042969 C-63.63723633 1.27042969 -58.35723633 1.60042969 -52.91723633 1.94042969 C-56.43478715 6.16149068 -58.95595836 8.99886602 -63.10473633 12.25292969 C-66.81385662 15.21724671 -70.41220756 18.23726942 -73.91723633 21.44042969 C-88.15315205 34.38010388 -88.15315205 34.38010388 -93.91723633 36.94042969 C-93.77286133 36.26496094 -93.62848633 35.58949219 -93.47973633 34.89355469 C-93.20129883 33.55550781 -93.20129883 33.55550781 -92.91723633 32.19042969 C-92.73161133 31.30871094 -92.54598633 30.42699219 -92.35473633 29.51855469 C-91.80569958 26.71899003 -91.80569958 26.71899003 -91.91723633 22.94042969 C-99.50723633 23.27042969 -107.09723633 23.60042969 -114.91723633 23.94042969 C-115.57723633 25.26042969 -116.23723633 26.58042969 -116.91723633 27.94042969 C-118.0140253 29.57041833 -119.11901194 31.19490497 -120.22973633 32.81542969 C-125.93274987 41.70262579 -128.96052684 51.62323419 -130.91723633 61.94042969 C-134.73461322 58.16538969 -138.44664178 54.30732914 -142.10473633 50.37792969 C-142.90427734 49.53198242 -142.90427734 49.53198242 -143.7199707 48.66894531 C-149.23291377 42.73993107 -149.23291377 42.73993107 -149.91723633 39.94042969 C-148.94067383 37.35449219 -148.94067383 37.35449219 -147.29223633 34.56542969 C-146.73020508 33.6025 -146.16817383 32.63957031 -145.58911133 31.64746094 C-143.76297096 28.69064955 -141.9152551 25.7837641 -139.91723633 22.94042969 C-140.24723633 22.61042969 -140.57723633 22.28042969 -140.91723633 21.94042969 C-141.00393065 20.45171109 -141.02427127 18.95898469 -141.01489258 17.46777344 C-141.01166992 16.56865234 -141.00844727 15.66953125 -141.00512695 14.74316406 C-140.99674805 13.79763672 -140.98836914 12.85210937 -140.97973633 11.87792969 C-140.97296875 10.45383789 -140.97296875 10.45383789 -140.96606445 9.00097656 C-140.95423743 6.64739904 -140.93775658 4.29394491 -140.91723633 1.94042969 C-140.06194336 1.94155762 -139.20665039 1.94268555 -138.32543945 1.94384766 C-122.29903812 1.89422363 -108.70161136 1.6821047 -93.91723633 -5.05957031 C-64.69153368 -14.98828142 -27.62217884 -15.26553625 0 0 Z " fill="#0882C4" transform="translate(161.917236328125,25.0595703125)"/>
<path d="M0 0 C-3.20021535 3.9097427 -6.18714526 7.17485101 -10.1875 10.3125 C-13.89662029 13.27681702 -17.49497123 16.29683973 -21 19.5 C-35.23591572 32.43967419 -35.23591572 32.43967419 -41 35 C-40.855625 34.32453125 -40.71125 33.6490625 -40.5625 32.953125 C-40.2840625 31.61507812 -40.2840625 31.61507812 -40 30.25 C-39.7215625 28.92742188 -39.7215625 28.92742188 -39.4375 27.578125 C-38.88846325 24.77856035 -38.88846325 24.77856035 -39 21 C-46.59 21.33 -54.18 21.66 -62 22 C-62.66 23.32 -63.32 24.64 -64 26 C-65.09678897 27.62998865 -66.20177561 29.25447528 -67.3125 30.875 C-73.01551354 39.7621961 -76.04329051 49.6828045 -78 60 C-81.81737689 56.22496001 -85.52940546 52.36689946 -89.1875 48.4375 C-89.98704102 47.59155273 -89.98704102 47.59155273 -90.80273438 46.72851562 C-96.31567744 40.79950139 -96.31567744 40.79950139 -97 38 C-96.0234375 35.4140625 -96.0234375 35.4140625 -94.375 32.625 C-93.81296875 31.66207031 -93.2509375 30.69914062 -92.671875 29.70703125 C-90.84573464 26.75021987 -88.99801877 23.84333441 -87 21 C-87.33 20.67 -87.66 20.34 -88 20 C-88.08669432 18.5112814 -88.10703494 17.018555 -88.09765625 15.52734375 C-88.09443359 14.62822266 -88.09121094 13.72910156 -88.08789062 12.80273438 C-88.07951172 11.85720703 -88.07113281 10.91167969 -88.0625 9.9375 C-88.05573242 8.5134082 -88.05573242 8.5134082 -88.04882812 7.06054688 C-88.0370011 4.70696935 -88.02052025 2.35351523 -88 0 C-58.6747719 -1.62651561 -29.34250707 -0.67067933 0 0 Z " fill="#9CA3A5" transform="translate(109,27)"/>
<path d="M0 0 C0.33 18.81 0.66 37.62 1 57 C-4.51112128 59.06667048 -8.92559782 60.55522294 -14.5625 61.625 C-15.80128906 61.86476562 -17.04007813 62.10453125 -18.31640625 62.3515625 C-21.87010857 62.9771347 -25.42709544 63.49793128 -29 64 C-29.34934324 58.38133222 -29.60148637 52.76911902 -29.76904297 47.14208984 C-29.83893492 45.23439374 -29.93410414 43.32743376 -30.05615234 41.42236328 C-31.01315778 26.08615012 -31.01315778 26.08615012 -27.69750977 21.0032959 C-24.46359482 17.43410758 -20.70444342 14.72122049 -16.67803955 12.11047363 C-14.57324054 10.71758405 -12.72439615 9.11863496 -10.859375 7.421875 C-9.8230538 6.53109043 -8.78660622 5.64045287 -7.75 4.75 C-7.20988281 4.27949219 -6.66976562 3.80898438 -6.11328125 3.32421875 C-2.22694971 0 -2.22694971 0 0 0 Z " fill="#712931" transform="translate(95,58)"/>
<path d="M0 0 C0 5.28 0 10.56 0 16 C-2.64 16.99 -5.28 17.98 -8 19 C-8.33 23.95 -8.66 28.9 -9 34 C-18.57 34 -28.14 34 -38 34 C-38 30.04 -38 26.08 -38 22 C-39.85238281 22.05220703 -39.85238281 22.05220703 -41.7421875 22.10546875 C-54.80990009 22.35607174 -67.32626013 21.39946668 -80 18 C-80 17.34 -80 16.68 -80 16 C-79.03811768 15.85900879 -78.07623535 15.71801758 -77.08520508 15.57275391 C-73.45265041 15.04017433 -69.82018518 14.50698679 -66.18774414 13.97363281 C-64.62754642 13.74463062 -63.06732576 13.51578459 -61.50708008 13.28710938 C-57.03039686 12.63093209 -52.55418608 11.97168667 -48.0786438 11.30776978 C-46.11316327 11.01675527 -44.14729111 10.72838939 -42.18139648 10.44018555 C-40.47512085 10.18555542 -40.47512085 10.18555542 -38.734375 9.92578125 C-37.75307617 9.78052002 -36.77177734 9.63525879 -35.76074219 9.4855957 C-32.01752715 8.82718973 -28.40516351 7.84320705 -24.7578125 6.78515625 C-21.7925655 5.94094287 -18.81074095 5.21762409 -15.8125 4.5 C-10.85333374 3.2811672 -4.99298021 0 0 0 Z " fill="#01A438" transform="translate(104,112)"/>
<path d="M0 0 C0.66 0.33 1.32 0.66 2 1 C5.07202523 12.59441779 1.58805545 25.7596248 -4 36 C-12.42181135 49.08837474 -24.24790531 59.66053963 -38 67 C-38.66 67 -39.32 67 -40 67 C-40.94256916 61.35767626 -41.87097823 55.53309941 -40 50 C-36.38389057 45.78057192 -30.93401192 43.5986043 -26.06054688 41.12841797 C-10.28261428 32.48794351 -4.88895372 16.11742985 0 0 Z " fill="#09A03E" transform="translate(174,49)"/>
<path d="M0 0 C0.99 0.99 0.99 0.99 2 2 C0.56195268 1.88146248 -0.87541 1.75462865 -2.3125 1.625 C-3.11300781 1.55539063 -3.91351563 1.48578125 -4.73828125 1.4140625 C-8 1 -8 1 -10.26513672 0.52783203 C-18.34571212 -1.14728073 -26.26757613 -1.39235273 -34.5 -1.375 C-35.56728333 -1.37717529 -35.56728333 -1.37717529 -36.65612793 -1.37939453 C-45.5302605 -1.37740582 -53.71320179 -0.81417404 -62.29614258 1.56787109 C-76.23401963 4.98645025 -91.74936656 3.30120841 -106 3 C-106 2.34 -106 1.68 -106 1 C-71.46321566 -12.33524428 -34.43304335 -15.55040667 0 0 Z " fill="#08A13E" transform="translate(160,24)"/>
<path d="M0 0 C1.61455078 0.00483398 1.61455078 0.00483398 3.26171875 0.00976562 C4.38964844 0.01814453 5.51757812 0.02652344 6.6796875 0.03515625 C7.81535156 0.03966797 8.95101562 0.04417969 10.12109375 0.04882812 C12.93234388 0.0606401 15.7434898 0.07711118 18.5546875 0.09765625 C19.0496875 1.08765625 19.0496875 1.08765625 19.5546875 2.09765625 C18.8946875 2.09765625 18.2346875 2.09765625 17.5546875 2.09765625 C17.29300781 2.65710937 17.03132813 3.2165625 16.76171875 3.79296875 C15.43028973 6.33517949 13.86449184 8.6057466 12.2421875 10.97265625 C6.53917396 19.85985235 3.51139699 29.78046075 1.5546875 40.09765625 C-2.26268939 36.32261626 -5.97471796 32.46455571 -9.6328125 28.53515625 C-10.43235352 27.68920898 -10.43235352 27.68920898 -11.24804688 26.82617188 C-16.76098994 20.89715764 -16.76098994 20.89715764 -17.4453125 18.09765625 C-16.46875 15.51171875 -16.46875 15.51171875 -14.8203125 12.72265625 C-14.25570313 11.7584375 -13.69109375 10.79421875 -13.109375 9.80078125 C-12.56023438 8.90875 -12.01109375 8.01671875 -11.4453125 7.09765625 C-11.04054688 6.4325 -10.63578125 5.76734375 -10.21875 5.08203125 C-7.20457796 0.34218819 -5.47558187 -0.02881885 0 0 Z " fill="#03A33A" transform="translate(29.4453125,46.90234375)"/>
<path d="M0 0 C-0.33 5.28 -0.66 10.56 -1 16 C-10.57 16 -20.14 16 -30 16 C-30 4 -30 4 -29 3 C-27.47737192 2.78519868 -25.94632144 2.62929968 -24.4140625 2.5 C-23.48335938 2.4175 -22.55265625 2.335 -21.59375 2.25 C-20.6140625 2.1675 -19.634375 2.085 -18.625 2 C-16.7002386 1.83662503 -14.77574184 1.6700932 -12.8515625 1.5 C-11.99385254 1.4278125 -11.13614258 1.355625 -10.25244141 1.28125 C-6.48108639 0.81034159 -4.00411381 0 0 0 Z " fill="#702932" transform="translate(96,130)"/>
<path d="M0 0 C-0.66 0.33 -1.32 0.66 -2 1 C-2.33 3.64 -2.66 6.28 -3 9 C9.375 8.505 9.375 8.505 22 8 C19.07872965 9.94751357 18.15815758 10.30091293 14.8515625 10.6328125 C14.02180908 10.71700439 13.19205566 10.80119629 12.3371582 10.88793945 C10.99463989 11.00528442 10.99463989 11.00528442 9.625 11.125 C8.69324951 11.2077417 7.76149902 11.2904834 6.80151367 11.37573242 C-10.78056108 12.81248045 -27.85658617 12.5864198 -45 8 C-45 7.34 -45 6.68 -45 6 C-43.99622314 5.85377197 -42.99244629 5.70754395 -41.95825195 5.55688477 C-38.22140351 5.01215244 -34.4848106 4.46568433 -30.74829102 3.91870117 C-29.133451 3.68255287 -27.51854278 3.44687047 -25.90356445 3.21166992 C-23.57745409 2.87281861 -21.25159706 2.53227275 -18.92578125 2.19140625 C-18.20787918 2.08719864 -17.48997711 1.98299103 -16.75032043 1.87562561 C-13.88803963 1.45478608 -11.0464477 1.00950427 -8.21166992 0.42944336 C-5.44856107 -0.10707375 -2.80704542 -0.06528013 0 0 Z " fill="#089F3B" transform="translate(69,122)"/>
<path d="M0 0 C0.99 0 1.98 0 3 0 C4.50672888 3.75611087 5.35273851 6.94095105 5 11 C1.89018531 15.07569969 -1.87811156 17.99001062 -6 21 C-6.71542969 21.58523437 -7.43085938 22.17046875 -8.16796875 22.7734375 C-10.76820023 24.51431743 -12.94394129 24.13582483 -16 24 C-16.33 24.33 -16.66 24.66 -17 25 C-17 25.66 -17 26.32 -17 27 C-18.65 27.66 -20.3 28.32 -22 29 C-22 24.38 -22 19.76 -22 15 C-20.4325 14.2575 -18.865 13.515 -17.25 12.75 C-13.48213575 10.87931634 -10.87578237 9.08880329 -8 6 C-7.154375 5.67 -6.30875 5.34 -5.4375 5 C-2.5681083 3.82281366 -1.79520903 2.44801231 0 0 Z " fill="#04A23A" transform="translate(157,85)"/>
<path d="M0 0 C4.3958194 -0.02907584 8.79161399 -0.0468244 13.1875 -0.0625 C14.43337891 -0.07087891 15.67925781 -0.07925781 16.96289062 -0.08789062 C18.16494141 -0.09111328 19.36699219 -0.09433594 20.60546875 -0.09765625 C22.26292114 -0.10551147 22.26292114 -0.10551147 23.95385742 -0.11352539 C26.8064732 -0.00721247 29.27024327 0.16415238 32 1 C32.66 1.99 33.32 2.98 34 4 C34.99 4.66 35.98 5.32 37 6 C31.78556667 6.02470935 26.57116739 6.04286444 21.35668945 6.05493164 C19.58259487 6.059962 17.80850444 6.06678699 16.03442383 6.07543945 C13.48517839 6.08756174 10.93598774 6.09324126 8.38671875 6.09765625 C7.19594978 6.10539818 7.19594978 6.10539818 5.98112488 6.11329651 C2.72343714 6.11362877 0.11318479 6.03772826 -3 5 C-5.16715557 5.87483915 -5.16715557 5.87483915 -7 7 C-6.67 6.01 -6.34 5.02 -6 4 C-2.9375 2.8125 -2.9375 2.8125 0 2 C0 1.34 0 0.68 0 0 Z " fill="#02A33A" transform="translate(104,15)"/>
<path d="M0 0 C0.33 0 0.66 0 1 0 C1 32.34 1 64.68 1 98 C-8.57 98 -18.14 98 -28 98 C-29 97 -29 97 -29.09765625 93.62109375 C-29.09098369 92.22652923 -29.07902532 90.83198257 -29.0625 89.4375 C-29.05798828 88.72658203 -29.05347656 88.01566406 -29.04882812 87.28320312 C-29.03700864 85.52209987 -29.01907263 83.76103964 -29 82 C-28.67 82 -28.34 82 -28 82 C-28 86.62 -28 91.24 -28 96 C-14.14 96.495 -14.14 96.495 0 97 C0 87.76 0 78.52 0 69 C-0.66 69 -1.32 69 -2 69 C-2.33 63.39 -2.66 57.78 -3 52 C-2.01 51.505 -2.01 51.505 -1 51 C-0.67 34.17 -0.34 17.34 0 0 Z " fill="#1C82AD" transform="translate(133,48)"/>
<path d="M0 0 C-0.33 0.66 -0.66 1.32 -1 2 C-3.31 2 -5.62 2 -8 2 C-8 3.32 -8 4.64 -8 6 C-5.11832319 6.80652508 -2.43968453 7.17515006 0.546875 7.31640625 C1.39121094 7.35830078 2.23554687 7.40019531 3.10546875 7.44335938 C4.41451172 7.50233398 4.41451172 7.50233398 5.75 7.5625 C6.63816406 7.60568359 7.52632812 7.64886719 8.44140625 7.69335938 C10.62745963 7.79913615 12.81362089 7.90122546 15 8 C15 8.33 15 8.66 15 9 C0.29922492 9.39144076 -13.71777282 8.82095948 -28 5 C-28 4.34 -28 3.68 -28 3 C-24.45926096 2.4932817 -20.91727889 1.99582971 -17.375 1.5 C-16.37597656 1.35691406 -15.37695312 1.21382813 -14.34765625 1.06640625 C-9.53055443 0.39647818 -4.87803213 -0.19978289 0 0 Z " fill="#169A45" transform="translate(52,125)"/>
<path d="M0 0 C5.89691239 0.53668529 10.87300303 1.78521788 16.375 3.9375 C17.44041016 4.33485352 17.44041016 4.33485352 18.52734375 4.74023438 C23.72916667 6.72916667 23.72916667 6.72916667 26 9 C24.56195268 8.88146248 23.12459 8.75462865 21.6875 8.625 C20.88699219 8.55539063 20.08648437 8.48578125 19.26171875 8.4140625 C16 8 16 8 13.77661133 7.53662109 C5.3109452 5.78202099 -3.08087488 5.55957188 -11.6875 5.375 C-13.17905668 5.33671752 -14.67059369 5.29766029 -16.16210938 5.2578125 C-19.77455704 5.16295913 -23.38715631 5.07853314 -27 5 C-27 4.67 -27 4.34 -27 4 C-17.76 3.67 -8.52 3.34 1 3 C0.67 2.01 0.34 1.02 0 0 Z " fill="#1A964A" transform="translate(136,17)"/>
<path d="M0 0 C0 3.70037626 -0.87267727 4.44558785 -3.25 7.1875 C-3.85328125 7.90292969 -4.4565625 8.61835937 -5.078125 9.35546875 C-7 11 -7 11 -11 11 C-11.33 11.99 -11.66 12.98 -12 14 C-16.44315402 16.87498201 -19.84760955 18.28253652 -25 20 C-24.67 24.29 -24.34 28.58 -24 33 C-20.8509288 30.2981424 -20.8509288 30.2981424 -20 27 C-17.525 27.99 -17.525 27.99 -15 29 C-17.75170751 31.9555377 -20.41970299 34.11563315 -24 36 C-24.66 36 -25.32 36 -26 36 C-26.94230197 30.35927571 -27.87754057 24.52988351 -26 19 C-22.36300426 14.76313941 -16.95100687 12.59061317 -12.04394531 10.13378906 C-7.40507805 7.5605808 -3.73762027 3.71965094 0 0 Z " fill="#199448" transform="translate(160,80)"/>
<path d="M0 0 C1.07636719 0.00322266 2.15273438 0.00644531 3.26171875 0.00976562 C4.38964844 0.01814453 5.51757812 0.02652344 6.6796875 0.03515625 C7.81535156 0.03966797 8.95101562 0.04417969 10.12109375 0.04882812 C12.93234388 0.0606401 15.7434898 0.07711118 18.5546875 0.09765625 C18.8846875 0.75765625 19.2146875 1.41765625 19.5546875 2.09765625 C18.8946875 2.09765625 18.2346875 2.09765625 17.5546875 2.09765625 C17.17183594 2.90976562 17.17183594 2.90976562 16.78125 3.73828125 C15.31819046 6.55257413 13.64476162 9.17976317 11.9296875 11.84765625 C11.29804687 12.8325 10.66640625 13.81734375 10.015625 14.83203125 C9.53351562 15.5796875 9.05140625 16.32734375 8.5546875 17.09765625 C7.8946875 16.43765625 7.2346875 15.77765625 6.5546875 15.09765625 C7.10898437 14.33839844 7.66328125 13.57914063 8.234375 12.796875 C8.95882812 11.80300781 9.68328125 10.80914062 10.4296875 9.78515625 C11.14898437 8.79902344 11.86828125 7.81289063 12.609375 6.796875 C13.960281 4.9224251 15.27304079 3.02012632 16.5546875 1.09765625 C15.98395508 1.26064209 15.41322266 1.42362793 14.82519531 1.59155273 C12.53815483 2.10134144 10.56504294 2.21201593 8.2265625 2.1953125 C7.42734375 2.19208984 6.628125 2.18886719 5.8046875 2.18554688 C4.9796875 2.17716797 4.1546875 2.16878906 3.3046875 2.16015625 C2.46421875 2.15564453 1.62375 2.15113281 0.7578125 2.14648438 C-1.30992651 2.13473586 -3.37762874 2.11680147 -5.4453125 2.09765625 C-5.56777344 2.71125 -5.69023437 3.32484375 -5.81640625 3.95703125 C-6.65392749 6.80772466 -8.27330778 8.13584553 -10.4453125 10.09765625 C-11.1053125 9.76765625 -11.7653125 9.43765625 -12.4453125 9.09765625 C-11.65979593 7.78146627 -10.8666888 6.46980397 -10.0703125 5.16015625 C-9.62945313 4.42925781 -9.18859375 3.69835938 -8.734375 2.9453125 C-6.35477846 -0.46544254 -3.9073456 -0.02056498 0 0 Z " fill="#24894A" transform="translate(29.4453125,46.90234375)"/>
<path d="M0 0 C0.66 0.33 1.32 0.66 2 1 C1.54625 1.4125 1.0925 1.825 0.625 2.25 C-1.05950374 4.06408095 -1.99265971 5.75285627 -3 8 C-4.32 8 -5.64 8 -7 8 C-7 20.21 -7 32.42 -7 45 C-2.05 44.67 2.9 44.34 8 44 C2.64799315 46.67600343 -2.01774569 48.14365619 -8 48 C-8.19848531 42.28934852 -8.34326166 36.5807236 -8.43945312 30.86743164 C-8.47956608 28.9263205 -8.53407356 26.98544932 -8.60351562 25.04516602 C-9.16852951 8.8467164 -9.16852951 8.8467164 -6.18359375 4.12939453 C-4.18641893 2.38186656 -2.40528216 1.10400282 0 0 Z " fill="#60232E" transform="translate(74,74)"/>
<path d="M0 0 C0.33 18.81 0.66 37.62 1 57 C-1.97 57.495 -1.97 57.495 -5 58 C-4.34 57.34 -3.68 56.68 -3 56 C-1.84997839 50.36361022 -1.82411409 44.75222967 -1.796875 39.015625 C-1.79117493 38.07821472 -1.78547485 37.14080444 -1.77960205 36.17498779 C-1.77020125 34.20504877 -1.76363778 32.23509437 -1.75976562 30.26513672 C-1.74998541 27.24549574 -1.71888655 24.22651499 -1.6875 21.20703125 C-1.68097617 19.28906652 -1.67572327 17.37109696 -1.671875 15.453125 C-1.6595282 14.54999573 -1.6471814 13.64686646 -1.63446045 12.71636963 C-1.63746155 11.87829773 -1.64046265 11.04022583 -1.64355469 10.17675781 C-1.63990906 9.4406427 -1.63626343 8.70452759 -1.63250732 7.94610596 C-2.09800963 5.48097708 -3.10996372 4.58464526 -5 3 C-2.25 0 -2.25 0 0 0 Z " fill="#5D3636" transform="translate(95,58)"/>
<path d="M0 0 C0 0.33 0 0.66 0 1 C-17.98903091 6.44532828 -36.42076402 5.39269989 -55 5 C-55 4.34 -55 3.68 -55 3 C-53.02 2.67 -51.04 2.34 -49 2 C-49 2.33 -49 2.66 -49 3 C-45.03069011 3.02465881 -41.06140966 3.04284023 -37.09204102 3.05493164 C-35.74079614 3.05997057 -34.38955674 3.06680177 -33.03833008 3.07543945 C-31.09979566 3.08752419 -29.161222 3.09269828 -27.22265625 3.09765625 C-26.05484619 3.10289307 -24.88703613 3.10812988 -23.68383789 3.11352539 C-21.08108449 3.30661495 -21.08108449 3.30661495 -20 2 C-13.32640215 0.53714735 -6.82306784 -0.26242569 0 0 Z " fill="#228E4D" transform="translate(109,22)"/>
<path d="M0 0 C-0.33 0.99 -0.66 1.98 -1 3 C-5.29145349 3.50184113 -9.58319646 4.0011621 -13.875 4.5 C-15.70998047 4.71462891 -15.70998047 4.71462891 -17.58203125 4.93359375 C-18.74863281 5.06894531 -19.91523437 5.20429688 -21.1171875 5.34375 C-22.73536377 5.53227539 -22.73536377 5.53227539 -24.38623047 5.72460938 C-27 6 -27 6 -29 6 C-29 7.98 -29 9.96 -29 12 C-29.33 12 -29.66 12 -30 12 C-30.09765625 5.84765625 -30.09765625 5.84765625 -30 4 C-28.40709089 2.40709089 -26.61982292 2.68613311 -24.4140625 2.5 C-23.48335938 2.4175 -22.55265625 2.335 -21.59375 2.25 C-20.6140625 2.1675 -19.634375 2.085 -18.625 2 C-16.7002386 1.83662503 -14.77574184 1.6700932 -12.8515625 1.5 C-11.99385254 1.4278125 -11.13614258 1.355625 -10.25244141 1.28125 C-6.64091638 0.83029869 -3.71407534 -0.10038041 0 0 Z " fill="#513F2D" transform="translate(96,130)"/>
<path d="M0 0 C1.49138518 0.05028052 2.9829356 0.09588677 4.47460938 0.13671875 C8.09073463 0.24572394 11.70052605 0.41754369 15.3125 0.625 C15.3125 0.955 15.3125 1.285 15.3125 1.625 C5.0825 1.625 -5.1475 1.625 -15.6875 1.625 C-15.6875 2.615 -15.6875 3.605 -15.6875 4.625 C-16.6775 4.955 -17.6675 5.285 -18.6875 5.625 C-19.0175 6.285 -19.3475 6.945 -19.6875 7.625 C-20.6775 7.625 -21.6675 7.625 -22.6875 7.625 C-22.3575 8.615 -22.0275 9.605 -21.6875 10.625 C-25.4375 11.75 -25.4375 11.75 -27.6875 10.625 C-19.32021088 0.66688186 -12.60141106 -0.74597876 0 0 Z " fill="#167FB4" transform="translate(144.6875,27.375)"/>
<path d="M0 0 C-4.29 0.99 -8.58 1.98 -13 3 C-12.67 4.65 -12.34 6.3 -12 8 C-15.96 8 -19.92 8 -24 8 C-24 7.01 -24 6.02 -24 5 C-21.60539412 4.18372554 -19.20943474 3.37188355 -16.8125 2.5625 C-16.13896484 2.33240234 -15.46542969 2.10230469 -14.77148438 1.86523438 C-5.29612786 -1.32403196 -5.29612786 -1.32403196 0 0 Z " fill="#119540" transform="translate(83,18)"/>
<path d="M0 0 C1.79258558 0.08693141 3.58415144 0.19510504 5.375 0.3125 C6.87160156 0.39951172 6.87160156 0.39951172 8.3984375 0.48828125 C9.68621094 0.74158203 9.68621094 0.74158203 11 1 C11.66 1.99 12.32 2.98 13 4 C13.99 4.66 14.98 5.32 16 6 C8.41 6 0.82 6 -7 6 C-7 5.67 -7 5.34 -7 5 C-2.38 4.67 2.24 4.34 7 4 C7 3.67 7 3.34 7 3 C4.69 2.34 2.38 1.68 0 1 C0 0.67 0 0.34 0 0 Z " fill="#0C9B44" transform="translate(125,15)"/>
<path d="M0 0 C0 5.28 0 10.56 0 16 C-3.74368742 17.87184371 -4.8400791 18.23999767 -8.75 18.125 C-9.54921875 18.10695312 -10.3484375 18.08890625 -11.171875 18.0703125 C-11.77515625 18.04710937 -12.3784375 18.02390625 -13 18 C-13 17.67 -13 17.34 -13 17 C-8.69214025 15.64851459 -5.58042408 15 -1 15 C-1 10.71 -1 6.42 -1 2 C-2.65 2.66 -4.3 3.32 -6 4 C-8.3125 3.625 -8.3125 3.625 -10 3 C-8.70990357 2.49596232 -7.41786211 1.99690074 -6.125 1.5 C-5.04605469 1.08234375 -5.04605469 1.08234375 -3.9453125 0.65625 C-2 0 -2 0 0 0 Z " fill="#15944A" transform="translate(104,112)"/>
<path d="M0 0 C5.54050113 0.56825653 10.03715966 2.62886517 15 5 C15 5.33 15 5.66 15 6 C7.90593106 5.41523944 0.98436101 4.36766005 -6 3 C-6 2.67 -6 2.34 -6 2 C-4.02 2 -2.04 2 0 2 C0 1.34 0 0.68 0 0 Z " fill="#1F9950" transform="translate(147,20)"/>
<path d="M0 0 C1 2 2 4 3 6 C2.34 6 1.68 6 1 6 C0.58823246 9.60296594 0.8464147 10.78402067 3 13.8125 C3.66 14.534375 4.32 15.25625 5 16 C4.67 16.66 4.34 17.32 4 18 C1.36 15.03 -1.28 12.06 -4 9 C-2.68 6.03 -1.36 3.06 0 0 Z " fill="#139944" transform="translate(16,57)"/>
<path d="M0 0 C0.99 0.33 1.98 0.66 3 1 C2.34 1 1.68 1 1 1 C1.33 5.29 1.66 9.58 2 14 C5.1490712 11.2981424 5.1490712 11.2981424 6 8 C8.475 8.99 8.475 8.99 11 10 C8.24829249 12.9555377 5.58029701 15.11563315 2 17 C1.34 17 0.68 17 0 17 C0 11.39 0 5.78 0 0 Z " fill="#0D964E" transform="translate(134,99)"/>
<path d="M0 0 C1.32 0.66 2.64 1.32 4 2 C6.68993053 1.69621948 6.68993053 1.69621948 9 1 C7.33333333 2.66666667 5.66666667 4.33333333 4 6 C3.278125 6.763125 2.55625 7.52625 1.8125 8.3125 C0 10 0 10 -2 10 C-1.34 6.7 -0.68 3.4 0 0 Z " fill="#98999D" transform="translate(70,52)"/>
<path d="M0 0 C1.81805487 0.05288887 3.63528757 0.14792926 5.44921875 0.28125 C6.84624023 0.33539063 6.84624023 0.33539063 8.27148438 0.390625 C10.56413682 0.48468254 12.84828966 0.61585971 15.13671875 0.78125 C15.13671875 1.11125 15.13671875 1.44125 15.13671875 1.78125 C9.19671875 1.78125 3.25671875 1.78125 -2.86328125 1.78125 C-3.19328125 3.10125 -3.52328125 4.42125 -3.86328125 5.78125 C-5.92578125 8.03125 -5.92578125 8.03125 -7.86328125 9.78125 C-8.52328125 9.45125 -9.18328125 9.12125 -9.86328125 8.78125 C-7.682155 3.61354653 -5.95043214 0.27975491 0 0 Z " fill="#179845" transform="translate(26.86328125,47.21875)"/>
<path d="M0 0 C0.66 0.33 1.32 0.66 2 1 C2.4140625 3.28515625 2.4140625 3.28515625 2.625 6.0625 C2.69976562 6.98160156 2.77453125 7.90070312 2.8515625 8.84765625 C2.90054688 9.55792969 2.94953125 10.26820312 3 11 C2.34 11 1.68 11 1 11 C0.67 10.01 0.34 9.02 0 8 C0 9.65 0 11.3 0 13 C-1.98 13.99 -1.98 13.99 -4 15 C-3.52229477 13.06213915 -3.04278429 11.12472326 -2.5625 9.1875 C-2.29566406 8.10855469 -2.02882812 7.02960937 -1.75390625 5.91796875 C-1.23922588 3.9259157 -0.65062825 1.95188476 0 0 Z " fill="#299456" transform="translate(174,49)"/>
<path d="M0 0 C-7.27641374 4.07479169 -14.83445462 4.49049142 -23 5 C-20.23827643 2.23827643 -17.20861023 2.09257227 -13.5 1.4375 C-2.12088178 -0.63626453 -2.12088178 -0.63626453 0 0 Z " fill="#25883F" transform="translate(94,117)"/>
<path d="M0 0 C1.3805087 3.76668598 0.59568159 6.44789173 -0.4375 10.25 C-0.72496094 11.32765625 -1.01242188 12.4053125 -1.30859375 13.515625 C-1.65083984 14.74539062 -1.65083984 14.74539062 -2 16 C-3.65 14.35 -5.3 12.7 -7 11 C-6.34 10.67 -5.68 10.34 -5 10 C-4.01 10.33 -3.02 10.66 -2 11 C-2.02320313 10.37351562 -2.04640625 9.74703125 -2.0703125 9.1015625 C-2.09738281 7.87566406 -2.09738281 7.87566406 -2.125 6.625 C-2.14820313 5.81289062 -2.17140625 5.00078125 -2.1953125 4.1640625 C-2 2 -2 2 0 0 Z " fill="#21924C" transform="translate(33,71)"/>
<path d="M0 0 C0.33 0.99 0.66 1.98 1 3 C5.95 2.67 10.9 2.34 16 2 C10.75445315 4.62277342 5.91706636 6.35861008 0 6 C0 4.02 0 2.04 0 0 Z " fill="#543E2C" transform="translate(66,116)"/>
<path d="M0 0 C0 0.33 0 0.66 0 1 C-1.98 1.33 -3.96 1.66 -6 2 C-6 2.66 -6 3.32 -6 4 C-8.97 3.67 -11.94 3.34 -15 3 C-15 2.34 -15 1.68 -15 1 C-9.92928099 0.28832014 -5.11791642 -0.10662326 0 0 Z " fill="#399D5D" transform="translate(39,127)"/>
<path d="M0 0 C-0.33 0.99 -0.66 1.98 -1 3 C-5.95 3 -10.9 3 -16 3 C-16 2.67 -16 2.34 -16 2 C-14.27192682 1.66104344 -12.54248026 1.32908475 -10.8125 1 C-9.84957031 0.814375 -8.88664062 0.62875 -7.89453125 0.4375 C-5.2065794 0.03122388 -2.71228981 -0.07933572 0 0 Z " fill="#494B2D" transform="translate(96,130)"/>
<path d="M0 0 C-2.58548628 2.58548628 -4.29538385 2.97641847 -7.91796875 3.09765625 C-9.53638672 3.08025391 -9.53638672 3.08025391 -11.1875 3.0625 C-12.81751953 3.04896484 -12.81751953 3.04896484 -14.48046875 3.03515625 C-15.31191406 3.02355469 -16.14335938 3.01195313 -17 3 C-17 2.67 -17 2.34 -17 2 C-5.47835991 -0.29612756 -5.47835991 -0.29612756 0 0 Z " fill="#239249" transform="translate(69,122)"/>
<path d="M0 0 C1 3 1 3 1 5 C-0.0725 5.45375 -1.145 5.9075 -2.25 6.375 C-4.88062317 7.50088537 -7.46000396 8.67920206 -10 10 C-7.02911382 6.00073014 -3.87051275 3.07881696 0 0 Z " fill="#1F7DAC" transform="translate(115,39)"/>
<path d="M0 0 C0.33 0 0.66 0 1 0 C1.19392201 5.52677733 0.7479503 9.75614911 -1 15 C-1.33 15 -1.66 15 -2 15 C-2.21755666 9.5610835 -2.10428384 5.12919186 0 0 Z " fill="#1E994B" transform="translate(175,61)"/>
<path d="M0 0 C2.97 0.99 5.94 1.98 9 3 C9 3.33 9 3.66 9 4 C6.03 3.67 3.06 3.34 0 3 C0 2.01 0 1.02 0 0 Z " fill="#2F916C" transform="translate(153,22)"/>
<path d="M0 0 C3.36720387 1.39332574 4.9859524 2.9789286 7 6 C6.67 6.66 6.34 7.32 6 8 C4.99403703 7.0479279 3.99538437 6.08812654 3 5.125 C2.443125 4.59132813 1.88625 4.05765625 1.3125 3.5078125 C0 2 0 2 0 0 Z " fill="#1E914C" transform="translate(14,67)"/>
<path d="M0 0 C0.33 0.66 0.66 1.32 1 2 C2.32 1.67 3.64 1.34 5 1 C3.71937515 2.7074998 2.38232443 4.37373596 1 6 C0.34 6 -0.32 6 -1 6 C-0.67 4.02 -0.34 2.04 0 0 Z " fill="#807F82" transform="translate(69,56)"/>
<path d="M0 0 C0 2.83967231 -0.40267181 5.23735711 -1 8 C-1.99 7.67 -2.98 7.34 -4 7 C-4 5.68 -4 4.36 -4 3 C-2 1.25 -2 1.25 0 0 Z " fill="#0A7EBC" transform="translate(109,46)"/>
</svg>
